# xmcd
#
# Track frame offsets:
#	150
#	12042
#	22659
#	39662
#	57989
#	71147
#	90974
#	112734
#	127802
#	145144
#	164772
#	179967
#	197409
#	216812
#	231207
#	244492
#
# Disc length: 3445 seconds
#
# Revision: 0
# Processed by: cddbd v1.5.2PL0 Copyright (c) Steve Scherf et al.
# Submitted via: audiograbber 1.83.01
#
DISCID=d90d7310
DTITLE=Various Artist - 0312 1000% Italia CD2 
DYEAR=1998
DGENRE=Folk
TTITLE0=96 Renzo Arbore L'orchestra italiana - Anema e core -
TTITLE1=68 Ornella Vanoni - Resta cu mme
TTITLE2=81 Peppino Gagliardi - Canzone appassiunata
TTITLE3=77 Marcella Bella - Lassame
TTITLE4=76 I Vianella - Nun è peccato
TTITLE5=84 Sergio Bruni - Te vogli bene assaje
TTITLE6=65 Mirinda Martino - Scetate
TTITLE7=84 Fausto Leali - Malafemmena
TTITLE8=59 Peppino di Capri - Voce 'e notte
TTITLE9=63 Fred Bongusto - Doce doce
TTITLE10=77 Bruno Martino - Na voce 'na chitarra e 'o ppoco e luna
TTITLE11=92 Mia Martini and Roberto Murolo - 'O marenariello
TTITLE12=76 Claudio Villa - Munasterio 'e Santa Chiara
TTITLE13=56 Sofia Loren - Che m' è 'mparato a ffà
TTITLE14=76 Iva Zanicchi - Nu Quarto 'e Luna
TTITLE15=Dduje Paravise (Dal vivo) - Massiomo Ranieri
EXTD=
EXTT0=
EXTT1=
EXTT2=
EXTT3=
EXTT4=
EXTT5=
EXTT6=
EXTT7=
EXTT8=
EXTT9=
EXTT10=
EXTT11=
EXTT12=
EXTT13=
EXTT14=
EXTT15=
PLAYORDER=
